HIERARCHY
ROOT joint_Root
{
	OFFSET 0.0 0.0 0.0
	CHANNELS 6 Xposition Yposition Zposition Zrotation Xrotation Yrotation 
	JOINT Hips
	{
		OFFSET -0.726466 93.3139 -2.00062
		CHANNELS 6 Xposition Yposition Zposition Zrotation Xrotation Yrotation 
		JOINT Spine
		{
			OFFSET 15.7357 0.0 0.0
			CHANNELS 6 Xposition Yposition Zposition Zrotation Xrotation Yrotation 
			JOINT Chest
			{
				OFFSET 8.98455 -0.406207 0.0
				CHANNELS 6 Xposition Yposition Zposition Zrotation Xrotation Yrotation 
				JOINT Neck
				{
					OFFSET 16.3773 0.0 0.0
					CHANNELS 6 Xposition Yposition Zposition Zrotation Xrotation Yrotation 
					JOINT Head
					{
						OFFSET 6.45672 0.0 0.0
						CHANNELS 6 Xposition Yposition Zposition Zrotation Xrotation Yrotation 
						End Site
						{
							OFFSET 0.0 0.0 0.0
						}
					}
				}
				JOINT Shoulder_L
				{
					OFFSET 12.9942 -0.242716 4.98039
					CHANNELS 6 Xposition Yposition Zposition Zrotation Xrotation Yrotation 
					JOINT UpperArm_L
					{
						OFFSET 5.34809 0.0 0.0
						CHANNELS 6 Xposition Yposition Zposition Zrotation Xrotation Yrotation 
						JOINT LowerArm_L
						{
							OFFSET 24.3286 1.87007e-05 0.0
							CHANNELS 6 Xposition Yposition Zposition Zrotation Xrotation Yrotation 
							JOINT Hand_L
							{
								OFFSET 22.2916 0.0 0.0
								CHANNELS 6 Xposition Yposition Zposition Zrotation Xrotation Yrotation 
								End Site
								{
									OFFSET 0.0 0.0 0.0
								}
							}
						}
					}
				}
				JOINT Shoulder_R
				{
					OFFSET 12.9945 -0.242716 -4.98039
					CHANNELS 6 Xposition Yposition Zposition Zrotation Xrotation Yrotation 
					JOINT UpperArm_R
					{
						OFFSET -5.34813 0.0 0.0
						CHANNELS 6 Xposition Yposition Zposition Zrotation Xrotation Yrotation 
						JOINT LowerArm_R
						{
							OFFSET -24.3289 0.000322201 0.0
							CHANNELS 6 Xposition Yposition Zposition Zrotation Xrotation Yrotation 
							JOINT Hand_R
							{
								OFFSET -22.2915 -0.000108084 0.0
								CHANNELS 6 Xposition Yposition Zposition Zrotation Xrotation Yrotation 
								End Site
								{
									OFFSET 0.0 0.0 0.0
								}
							}
						}
					}
				}
			}
		}
		JOINT UpperLeg_L
		{
			OFFSET -2.19248 -6.46944 0.0
			CHANNELS 6 Xposition Yposition Zposition Zrotation Xrotation Yrotation 
			JOINT LowerLeg_L
			{
				OFFSET 39.0811 0.0 -1.23785e-05
				CHANNELS 6 Xposition Yposition Zposition Zrotation Xrotation Yrotation 
				JOINT Foot_L
				{
					OFFSET 40.9854 0.0 -1.26872e-05
					CHANNELS 6 Xposition Yposition Zposition Zrotation Xrotation Yrotation 
					JOINT Toes_L
					{
						OFFSET 11.7543 0.0 0.0
						CHANNELS 6 Xposition Yposition Zposition Zrotation Xrotation Yrotation 
						End Site
						{
							OFFSET 0.0 0.0 0.0
						}
					}
				}
			}
		}
		JOINT UpperLeg_R
		{
			OFFSET -2.19251 6.46944 0.0
			CHANNELS 6 Xposition Yposition Zposition Zrotation Xrotation Yrotation 
			JOINT LowerLeg_R
			{
				OFFSET -39.0811 -0.00228153 -0.0401928
				CHANNELS 6 Xposition Yposition Zposition Zrotation Xrotation Yrotation 
				JOINT Foot_R
				{
					OFFSET -40.9854 0.0 0.0
					CHANNELS 6 Xposition Yposition Zposition Zrotation Xrotation Yrotation 
					JOINT Toes_R
					{
						OFFSET -11.7543 0.0 0.0
						CHANNELS 6 Xposition Yposition Zposition Zrotation Xrotation Yrotation 
						End Site
						{
							OFFSET 0.0 0.0 0.0
						}
					}
				}
			}
		}
	}
}
MOTION
Frames:	4
Frame Time:	0.0333333
0.000000 0.000000 0.000000 0.000000 0.000000 -0.000000 -1.594240 92.040400 -1.116710 88.132600 -1.941970 3.026290 15.735700 0.000005 -0.000001 73.023000 85.506900 -69.333600 8.984550 -0.406207 -0.000000 0.932284 -2.842560 7.397520 16.377300 -0.000001 -0.000001 3.147680 -1.449050 -0.836026 6.456720 -0.000001 -0.000000 1.834860 -0.649516 8.542190 12.994200 -0.242716 4.980390 -84.615800 -10.550800 -62.764100 5.348090 -0.000007 -0.000001 -56.594900 -57.453100 -90.626200 24.328600 0.000019 0.000005 -0.128101 -0.202502 -32.317000 22.291600 -0.000001 0.000005 18.244100 5.508580 -6.883430 12.994500 -0.242716 -4.980390 90.287000 -0.681226 -67.152300 -5.348130 -0.000001 -0.000004 -40.455300 69.464100 -10.517900 -24.328900 0.000322 -0.000009 23.906500 1.768070 -86.019200 -22.291500 -0.000108 -0.000004 21.217700 5.679570 -22.809500 -2.192480 -6.469440 -0.000000 -169.242000 -14.393600 -1.572540 39.081100 -0.000007 -0.000012 -0.168830 0.452477 20.461900 40.985400 -0.000006 -0.000013 -6.534630 2.212210 -64.033600 11.754300 -0.000000 0.000003 -0.000033 -0.000396 -16.593000 -2.192510 6.469440 -0.000001 174.582000 19.459800 179.124000 -39.081100 -0.002282 -0.040193 -0.062602 0.183309 19.780200 -40.985400 0.000008 0.000006 -3.233070 2.995470 -64.046700 -11.754300 -0.000006 -0.000006 -0.004752 -0.059044 -18.975300
0.000000 0.000000 0.000000 0.000000 0.000000 -0.000000 -1.544170 92.042700 -1.130380 88.142000 -2.231030 3.059000 15.735700 0.000005 -0.000001 72.146000 85.478100 -68.425700 8.984550 -0.406207 -0.000000 0.952047 -2.992630 7.461140 16.377300 -0.000001 -0.000001 3.314730 -1.349100 -1.002640 6.456720 -0.000001 -0.000000 1.885560 -0.607731 8.556480 12.994200 -0.242716 4.980390 -84.524000 -10.633500 -62.546700 5.348090 -0.000007 -0.000001 -56.926100 -57.647200 -95.228100 24.328600 0.000019 0.000005 -0.184213 -0.273092 -34.008000 22.291600 -0.000001 0.000005 17.707700 5.511940 -7.022400 12.994500 -0.242716 -4.980390 90.290000 -0.689147 -67.173400 -5.348130 -0.000001 -0.000004 -39.921300 69.491600 -11.063500 -24.328900 0.000322 -0.000009 23.791900 1.771100 -85.990800 -22.291500 -0.000108 -0.000004 21.148100 5.679470 -22.844900 -2.192480 -6.469440 -0.000000 -169.282000 -14.516400 -1.492880 39.081100 -0.000007 -0.000012 -0.166827 0.446628 20.482200 40.985400 -0.000006 -0.000013 -6.522960 2.044700 -64.080000 11.754300 -0.000000 0.000003 -0.000044 -0.000504 -16.597200 -2.192510 6.469440 -0.000001 174.531000 19.266600 179.118000 -39.081100 -0.002282 -0.040193 -0.064250 0.188256 19.744900 -40.985400 0.000008 0.000006 -3.306260 3.155720 -63.973800 -11.754300 -0.000006 -0.000006 -0.004994 -0.061404 -19.071500
0.000000 0.000000 0.000000 0.000000 0.000000 -0.000000 -1.508430 92.045000 -1.144900 88.141000 -2.489310 3.057830 15.735700 0.000005 -0.000001 71.177200 85.451500 -67.434400 8.984550 -0.406207 -0.000000 0.960495 -3.155910 7.507870 16.377300 -0.000001 -0.000001 3.310440 -1.249940 -1.138460 6.456720 -0.000001 -0.000000 2.076950 -0.459449 8.603560 12.994200 -0.242716 4.980390 -84.427100 -10.741300 -62.366500 5.348090 -0.000007 -0.000001 -57.015500 -57.852400 -99.473700 24.328600 0.000019 0.000005 -0.284259 -0.391237 -36.000300 22.291600 -0.000001 0.000005 17.532800 5.520820 -7.396730 12.994500 -0.242716 -4.980390 90.290600 -0.692916 -67.248200 -5.348130 -0.000001 -0.000004 -39.577200 69.494100 -11.381700 -24.328900 0.000322 -0.000009 23.732800 1.759520 -86.005900 -22.291500 -0.000108 -0.000004 21.245700 5.679430 -22.851900 -2.192480 -6.469440 -0.000000 -169.298000 -14.566000 -1.420310 39.081100 -0.000007 -0.000012 -0.167250 0.448268 20.460800 40.985400 -0.000006 -0.000013 -6.538210 1.882260 -64.118500 11.754300 -0.000000 0.000003 -0.000037 -0.000431 -16.594400 -2.192510 6.469440 -0.000001 174.505000 19.184100 179.085000 -39.081100 -0.002282 -0.040193 -0.066828 0.195926 19.699600 -40.985400 0.000008 0.000006 -3.445190 3.289070 -63.883100 -11.754300 -0.000006 -0.000006 -0.004963 -0.061110 -19.059500
0.000000 0.000000 0.000000 0.000000 0.000000 -0.000000 -1.477140 92.041800 -1.141800 88.111900 -2.760730 3.101340 15.735700 0.000005 -0.000001 70.523600 85.422900 -66.750100 8.984550 -0.406207 -0.000000 0.985378 -3.273920 7.570950 16.377300 -0.000001 -0.000001 3.491960 -1.154930 -1.285730 6.456720 -0.000001 -0.000000 2.064440 -0.432406 8.652500 12.994200 -0.242716 4.980390 -84.370500 -10.787800 -62.227300 5.348090 -0.000007 -0.000001 -56.572400 -58.046700 -103.191000 24.328600 0.000019 0.000005 -0.482968 -0.615827 -38.104500 22.291600 -0.000001 0.000005 17.458600 5.530130 -7.801810 12.994500 -0.242716 -4.980390 90.300100 -0.716907 -67.281500 -5.348130 -0.000001 -0.000004 -39.379200 69.544300 -11.556200 -24.328900 0.000322 -0.000009 23.675200 1.747760 -86.021600 -22.291500 -0.000108 -0.000004 21.432800 5.679580 -22.798300 -2.192480 -6.469440 -0.000000 -169.269000 -14.738700 -1.342030 39.081100 -0.000007 -0.000012 -0.167815 0.448165 20.528600 40.985400 -0.000006 -0.000013 -6.537020 1.760900 -64.186000 11.754300 -0.000000 0.000003 -0.000040 -0.000462 -16.595600 -2.192510 6.469440 -0.000001 174.496000 19.047500 179.106000 -39.081100 -0.002282 -0.040193 -0.067031 0.196616 19.688300 -40.985400 0.000008 0.000006 -3.439040 3.447450 -63.850100 -11.754300 -0.000006 -0.000006 -0.004844 -0.059948 -19.012200
